<svg width="72" height="46" viewBox="0 0 72 46" fill="none" xmlns="http://www.w3.org/2000/svg">
<path d="M51.6828 32.6052C53.9411 32.6052 55.0041 31.7435 55.9325 29.1315L60 17.7231H57.645L54.9174 26.5493H54.8696L52.142 17.735H49.7203L53.6443 28.5935L53.4341 29.254C53.2856 30.1994 52.4369 30.8738 51.4815 30.8041C51.2992 30.8041 50.9456 30.7852 50.8021 30.7662V32.5594C51.094 32.5992 51.3889 32.6182 51.6828 32.6172V32.6052ZM43.8347 26.892C42.5995 26.892 41.8154 26.2943 41.8154 25.3898C41.8154 24.4523 42.5716 23.9064 44.017 23.8198L46.5912 23.6574V24.5002C46.5344 25.8889 45.3619 26.9697 43.9732 26.913C43.9264 26.911 43.8806 26.907 43.8347 26.903V26.892ZM43.2131 28.6623C44.6148 28.7001 45.9257 27.9699 46.6301 26.7575H46.6779V28.5507H48.8217V21.1241C48.8217 18.9703 47.0993 17.5826 44.4474 17.5826C41.9878 17.5826 40.1687 18.9892 40.102 20.9228H42.189C42.4381 19.9396 43.3725 19.2911 44.3807 19.4006C45.7972 19.4006 46.5912 20.0611 46.5912 21.2765V22.0993L43.7022 22.2717C41.0125 22.4341 39.5581 23.5349 39.5581 25.4495C39.5561 27.3911 41.0583 28.6732 43.2121 28.6732L43.2131 28.6623ZM30.7896 15.5792H33.4594C35.4697 15.5792 36.6183 16.6511 36.6183 18.5369C36.6183 20.4227 35.4697 21.5036 33.4504 21.5036H30.7896V15.5792ZM28.4734 13.6267V28.5477H30.7896V23.4611H33.9963C36.6083 23.6016 38.8388 21.5983 38.9793 18.9862C38.9873 18.8378 38.9882 18.6904 38.9823 18.5419C39.1058 15.9588 37.1124 13.7652 34.5293 13.6406C34.3769 13.6337 34.2254 13.6347 34.073 13.6416L28.4734 13.6267ZM20.7858 16.4111C19.4548 16.3344 18.3162 17.1672 17.6846 17.1672C17.053 17.1672 16.0767 16.4499 15.0238 16.4698C13.6291 16.5057 12.3579 17.2778 11.6835 18.4991C10.248 20.9687 11.31 24.6247 12.6977 26.634C13.3771 27.6302 14.1919 28.721 15.2629 28.6822C16.277 28.6443 16.6794 28.0217 17.9048 28.0217C19.1301 28.0217 19.4937 28.6822 20.5656 28.6623C21.6754 28.6433 22.3747 27.6661 23.0561 26.6699C23.5363 25.9646 23.9098 25.1925 24.1659 24.3786C22.8578 23.8068 22.0101 22.5187 22.0031 21.0912C22.023 19.832 22.6825 18.6704 23.7544 18.01C23.071 17.0397 21.9742 16.4439 20.7878 16.4021L20.7858 16.4111ZM19.9549 15.0931C19.3722 15.8273 18.4806 16.2487 17.5431 16.2317C17.4834 15.3172 17.7942 14.4177 18.4049 13.7343C19.0125 13.029 19.8693 12.5867 20.7957 12.5C20.8615 13.4404 20.5596 14.3689 19.9529 15.0901" fill="white"/>
</svg>
