<svg width="25" height="16" viewBox="0 0 25 16" fill="none" xmlns="http://www.w3.org/2000/svg"><g clip-path="url(#clip0_22_576)"><path d="M6.08831 8.90227C5.72673 10.3829 4.25159 11.2854 2.79346 10.9183C1.3354 10.5512 0.446569 9.05316 0.808148 7.57257C1.16973 6.09192 2.64487 5.18929 4.10293 5.55646C4.10538 5.55708 4.10789 5.5577 4.11034 5.55839C5.56454 5.92897 6.44927 7.42454 6.08831 8.90227V8.90227Z" fill="#F7931A"/><path d="M4.07036 7.83333C3.98527 8.17892 3.46624 8.00177 3.29777 7.95948L3.44664 7.35476C3.61254 7.39625 4.15546 7.47568 4.06779 7.83333H4.07036V7.83333ZM3.97761 8.81051C3.88571 9.18708 3.26119 8.98331 3.05866 8.93224L3.22284 8.26445C3.42538 8.31626 4.07373 8.41734 3.97761 8.81051ZM4.65831 7.83856C4.71191 7.47052 4.43623 7.27272 4.0627 7.14141L4.18523 6.64293L3.8832 6.56692L3.76411 7.05246C3.68581 7.03262 3.60501 7.01359 3.525 6.99542L3.64409 6.50472L3.34543 6.42871L3.22291 6.92719L3.03231 6.88402L2.61964 6.77946L2.54049 7.10347C2.54049 7.10347 2.76171 7.15528 2.75749 7.15876C2.84197 7.16915 2.9036 7.24535 2.89704 7.33156L2.75749 7.89914C2.76796 7.90157 2.77825 7.90499 2.78812 7.90953L2.75663 7.90088L2.56175 8.69656C2.54349 8.75478 2.48223 8.78681 2.42483 8.76828H2.42476C2.42476 8.77257 2.20691 8.71385 2.20691 8.71385L2.05884 9.05944L2.44768 9.1571L2.66038 9.21326L2.537 9.7169L2.83566 9.79291L2.95819 9.29444C3.03869 9.31689 3.1179 9.3376 3.19558 9.35664L3.07477 9.85686L3.37343 9.932L3.49681 9.42922C4.00732 9.52694 4.38936 9.48794 4.55104 9.01976C4.68122 8.64307 4.54424 8.42623 4.27621 8.28454C4.47188 8.23876 4.61659 8.11175 4.65825 7.83875L4.65831 7.83856Z" fill="white"/><path d="M21.8342 10.4973C23.0678 10.4973 24.0678 9.43723 24.0678 8.12957C24.0678 6.82191 23.0678 5.76184 21.8342 5.76184C20.6007 5.76184 19.6007 6.82191 19.6007 8.12957C19.6007 9.43723 20.6007 10.4973 21.8342 10.4973Z" fill="white"/><path d="M21.8344 5.47473C21.3391 5.47473 20.8548 5.63045 20.443 5.9222C20.0311 6.21394 19.7101 6.62861 19.5205 7.11376C19.3309 7.59892 19.2813 8.13277 19.378 8.64781C19.4746 9.16285 19.7131 9.63594 20.0634 10.0073C20.4137 10.3786 20.86 10.6315 21.3458 10.7339C21.8317 10.8363 22.3353 10.7838 22.7929 10.5828C23.2506 10.3819 23.6417 10.0415 23.917 9.60492C24.1922 9.16829 24.3391 8.65495 24.3391 8.12982V8.12982C24.34 7.78217 24.2764 7.43771 24.1517 7.11613C24.0271 6.79454 23.844 6.50213 23.6128 6.25558C23.3815 6.00903 23.1068 5.81318 22.8041 5.6792C22.5015 5.54522 22.177 5.47574 21.849 5.47473H21.8344ZM21.8769 8.21983L21.6161 9.152H23.0109C23.0202 9.15166 23.0294 9.15325 23.0381 9.15668C23.0467 9.16012 23.0547 9.16533 23.0614 9.17201C23.0682 9.1787 23.0736 9.18674 23.0774 9.19566C23.0813 9.20458 23.0834 9.21421 23.0837 9.22401V9.24844L22.9624 9.69202C22.9571 9.713 22.9452 9.73143 22.9286 9.74428C22.9121 9.75713 22.8919 9.76364 22.8715 9.76274H20.7368L21.0946 8.47055L20.6943 8.59913L20.7853 8.3034L21.1856 8.17483L21.6889 6.36191C21.6944 6.34105 21.7064 6.32275 21.7229 6.30994C21.7394 6.29712 21.7594 6.29052 21.7799 6.29119H22.3196C22.3288 6.29085 22.3381 6.29244 22.3467 6.29587C22.3554 6.2993 22.3633 6.30451 22.3701 6.3112C22.3768 6.31789 22.3823 6.32592 22.3861 6.33484C22.3899 6.34376 22.3921 6.3534 22.3924 6.36319V6.38762L21.9679 7.91767L22.3681 7.7891L22.2832 8.09768L21.8769 8.21983Z" fill="#345D9D"/><path d="M12.5591 8.60024C12.3625 8.48914 12.1411 8.45694 11.9218 8.44934C11.7377 8.44312 11.4632 8.32773 11.4632 7.99995C11.4632 7.75563 11.6655 7.55913 11.9219 7.55042C12.1412 7.54296 12.3625 7.51062 12.5591 7.39952C12.7357 7.29972 12.8824 7.15616 12.9843 6.98327C13.0863 6.81038 13.14 6.61425 13.14 6.4146C13.14 6.21495 13.0864 6.01882 12.9844 5.84591C12.8825 5.67301 12.7358 5.52942 12.5593 5.4296C12.3827 5.32977 12.1824 5.27722 11.9785 5.27722C11.7746 5.27723 11.5743 5.32979 11.3977 5.42962C11.2211 5.52945 11.0745 5.67304 10.9726 5.84595C10.8706 6.01886 10.817 6.215 10.817 6.41465C10.817 6.63506 10.897 6.83778 10.9991 7.02586C11.0852 7.18408 11.1285 7.4776 10.834 7.64411C10.6148 7.76793 10.3414 7.68958 10.2047 7.47552C10.0894 7.29463 9.95007 7.12535 9.75503 7.01508C9.57846 6.91521 9.37816 6.86262 9.17425 6.86259C8.97035 6.86255 8.77003 6.91508 8.59343 7.01489C8.41683 7.1147 8.27018 7.25828 8.16821 7.43118C8.06625 7.60408 8.01257 7.80022 8.01257 7.99988C8.01257 8.19954 8.06625 8.39568 8.16821 8.56858C8.27018 8.74148 8.41683 8.88505 8.59343 8.98486C8.77003 9.08467 8.97035 9.1372 9.17425 9.13717C9.37816 9.13714 9.57846 9.08455 9.75503 8.98468C9.95007 8.87454 10.0894 8.70526 10.2047 8.52451C10.2992 8.3761 10.5358 8.18706 10.834 8.35565C11.0527 8.47946 11.1204 8.75059 10.9991 8.97404C10.8969 9.16198 10.817 9.36484 10.817 9.58511C10.817 9.78476 10.8706 9.9809 10.9726 10.1538C11.0745 10.3267 11.2211 10.4703 11.3977 10.5701C11.5743 10.67 11.7746 10.7225 11.9785 10.7225C12.1824 10.7225 12.3827 10.67 12.5593 10.5702C12.7358 10.4703 12.8825 10.3268 12.9844 10.1538C13.0864 9.98094 13.14 9.78481 13.14 9.58516C13.14 9.38551 13.0863 9.18938 12.9843 9.01649C12.8824 8.8436 12.7357 8.70004 12.5591 8.60024V8.60024Z" fill="url(#paint0_linear_22_576)"/><path d="M16.6163 5.61987L16.5806 5.73916V9.2002L16.6163 9.23523L18.2493 8.28559L16.6163 5.61987Z" fill="#343434"/><path d="M16.6164 5.61987L14.9834 8.28559L16.6164 9.23523V7.55534V5.61987Z" fill="#8C8C8C"/><path d="M16.6164 9.53936L16.5963 9.5635V10.7964L16.6164 10.8541L18.2504 8.59021L16.6164 9.53936Z" fill="#3C3C3B"/><path d="M16.6164 10.8541V9.53936L14.9834 8.59021L16.6164 10.8541Z" fill="#8C8C8C"/><path d="M16.6158 9.23507L18.2488 8.28543L16.6158 7.55518V9.23507Z" fill="#141414"/><path d="M14.9834 8.28543L16.6164 9.23507V7.55518L14.9834 8.28543Z" fill="#393939"/></g><defs><linearGradient id="paint0_linear_22_576" x1="9.45856" y1="6.11291" x2="13.5247" y2="9.64292" gradientUnits="userSpaceOnUse"><stop stop-color="#00AAE4"/><stop offset="1" stop-color="#006097"/></linearGradient><clipPath id="clip0_22_576"><rect width="24" height="16" fill="white" transform="translate(0.727539)"/></clipPath></defs></svg>