<svg width="24" height="16" viewBox="0 0 24 16" fill="none" xmlns="http://www.w3.org/2000/svg"><path d="M14.0676 4.08915L9.80317 4.10381L9.93239 11.9109L14.1968 11.8962L14.0676 4.08915Z" fill="#FF5F00"/><path d="M10.0839 8.02308C10.0575 6.43519 10.7688 5.02429 11.883 4.10911C11.042 3.44918 9.98765 3.05234 8.84474 3.05625C6.13713 3.06553 3.98349 5.29608 4.02915 8.04382C4.07482 10.7916 6.30234 13.0071 9.00995 12.9978C10.1529 12.9939 11.1939 12.5899 12.0128 11.9243C10.8686 11.0307 10.1102 9.61098 10.0839 8.02308Z" fill="#EB001B"/><path d="M19.9708 7.95618C20.0165 10.7039 17.8629 12.9345 15.1553 12.9437C14.0123 12.9477 12.958 12.5508 12.117 11.8909C13.2448 10.9757 13.9425 9.56481 13.9161 7.97691C13.8897 6.38902 13.1316 4.98315 11.9872 4.0757C12.8061 3.41009 13.8471 3.00607 14.99 3.00216C17.6977 2.99289 19.9254 5.22224 19.9708 7.95618Z" fill="#F79E1B"/></svg>