<svg width="24" height="16" viewBox="0 0 24 16" fill="none" xmlns="http://www.w3.org/2000/svg"><path d="M20.655 5.01752H19.3977C19.0175 5.01752 18.7251 5.13448 18.5497 5.51459L16.152 10.9824H17.8479C17.8479 10.9824 18.1403 10.2514 18.1988 10.076C18.3743 10.076 20.0409 10.076 20.2748 10.076C20.3333 10.2807 20.4795 10.9532 20.4795 10.9532H22L20.655 5.01752ZM18.6667 8.84793C18.8129 8.49705 19.3099 7.18126 19.3099 7.18126C19.3099 7.2105 19.4561 6.83038 19.5146 6.6257L19.6316 7.15202C19.6316 7.15202 19.9532 8.58477 20.0117 8.87717H18.6667V8.84793Z" fill="#3362AB"/><path d="M16.269 9.02338C16.269 10.2514 15.1579 11.0702 13.4327 11.0702C12.7017 11.0702 12 10.924 11.6199 10.7485L11.8538 9.40349L12.0585 9.49121C12.5848 9.72513 12.9357 9.81285 13.5789 9.81285C14.0468 9.81285 14.5438 9.63741 14.5438 9.22806C14.5438 8.9649 14.3392 8.78946 13.6959 8.49706C13.0819 8.20466 12.2631 7.73683 12.2631 6.88887C12.2631 5.71928 13.4035 4.92981 15.0117 4.92981C15.6257 4.92981 16.152 5.04677 16.4737 5.19297L16.2398 6.47952L16.1228 6.36256C15.8304 6.2456 15.4503 6.12864 14.8947 6.12864C14.2807 6.15788 13.9883 6.42104 13.9883 6.65496C13.9883 6.91811 14.3392 7.12279 14.8947 7.38595C15.8304 7.82455 16.269 8.32162 16.269 9.02338Z" fill="#3362AB"/><path d="M2 5.076L2.02924 4.95905H4.54386C4.89474 4.95905 5.15789 5.076 5.24561 5.45612L5.80117 8.0877C5.24561 6.68419 3.95906 5.54384 2 5.076Z" fill="#F9B50B"/><path d="M9.33918 5.01752L6.79532 10.9532H5.07017L3.60818 5.98243C4.66082 6.65495 5.53801 7.70758 5.85965 8.43857L6.03509 9.05261L7.61403 4.98828H9.33918V5.01752Z" fill="#3362AB"/><path d="M10.0117 4.98828H11.6199L10.5965 10.9532H8.98831L10.0117 4.98828Z" fill="#3362AB"/></svg>