<svg xmlns="http://www.w3.org/2000/svg" style="display:none">
    <symbol id="chevron-down" viewBox="0 0 24 24" fill="none">
        <path d="M4.293 8.293a1 1 0 0 1 1.414 0L12 14.586l6.293-6.293a1 1 0 1 1 1.414 1.414l-7 7a1 1 0 0 1-1.414 0l-7-7a1 1 0 0 1 0-1.414" fill="currentColor"></path>
    </symbol>
    <symbol id="dismiss-close" viewBox="0 0 24 24" fill="none">
        <path d="m4.21 4.387.083-.094a1 1 0 0 1 1.32-.083l.094.083L12 10.585l6.293-6.292a1 1 0 1 1 1.414 1.414L13.415 12l6.292 6.293a1 1 0 0 1 .083 1.32l-.083.094a1 1 0 0 1-1.32.083l-.094-.083L12 13.415l-6.293 6.292a1 1 0 0 1-1.414-1.414L10.585 12 4.293 5.707a1 1 0 0 1-.083-1.32l.083-.094z" fill="currentColor"></path>
    </symbol>
    <symbol id="checkmark" viewBox="0 0 24 24" fill="none">
        <path d="m8.5 16.586-3.793-3.793a1 1 0 0 0-1.414 1.414l4.5 4.5a1 1 0 0 0 1.414 0l11-11a1 1 0 0 0-1.414-1.414z" fill="currentColor"></path>
    </symbol>
    <symbol id="verified" viewBox="0 0 24 23">
        <path fill-rule="evenodd" clip-rule="evenodd" d="M20.5247 8.87207L22.2892 10.2909L22.2873 10.2938C22.7619 10.675 23.0379 11.2509 23.0379 11.8596C23.0379 12.4683 22.7619 13.0441 22.2873 13.4253L20.5228 14.8442C20.2432 15.0683 20.0981 15.4203 20.1388 15.7764L20.3836 18.0285C20.4502 18.6341 20.2383 19.2371 19.8074 19.6677C19.3766 20.0985 18.7735 20.3102 18.1679 20.2432L15.9167 19.9984C15.5609 19.959 15.2094 20.1038 14.9846 20.3824L13.5657 22.1469C13.1845 22.6216 12.6087 22.8976 11.9999 22.8976C11.3913 22.8976 10.8154 22.6216 10.4342 22.1469L9.01338 20.3796C8.78865 20.1008 8.43715 19.956 8.08122 19.9956L5.82906 20.2404C5.22354 20.307 4.62052 20.095 4.18986 19.6642C3.75919 19.2333 3.54747 18.6303 3.61435 18.0247L3.85915 15.7735C3.8995 15.4175 3.75456 15.0657 3.47515 14.8413L1.71067 13.4225C1.2361 13.0412 0.960022 12.4654 0.960022 11.8567C0.960022 11.248 1.2361 10.6721 1.71067 10.2909L3.47707 8.87111C3.75663 8.64694 3.90161 8.29499 3.86107 7.93895L3.61627 5.68775C3.54966 5.08222 3.76163 4.4792 4.19249 4.04854C4.62333 3.61787 5.22644 3.40616 5.83195 3.47303L8.08315 3.71495C8.43922 3.75568 8.79124 3.61066 9.0153 3.33095L10.4342 1.56743C10.8275 1.11296 11.3989 0.851807 11.9999 0.851807C12.601 0.851807 13.1724 1.11296 13.5657 1.56743L14.9846 3.33095C15.2094 3.60962 15.5609 3.75439 15.9167 3.71495L18.1708 3.47303C18.7764 3.40642 19.3794 3.61839 19.81 4.04925C20.2408 4.4801 20.4524 5.08321 20.3855 5.68871L20.1407 7.93991C20.1012 8.29582 20.2459 8.64733 20.5247 8.87207ZM11.1467 15.4668C11.6353 15.4319 12.0857 15.1896 12.3839 14.8011L16.2882 9.59599C16.4941 9.32157 16.5378 8.95824 16.4032 8.64284C16.2684 8.32743 15.9757 8.10786 15.6352 8.06684C15.2946 8.02581 14.9581 8.16956 14.7522 8.44395L10.9996 13.4465L8.83868 11.2856C8.59766 11.036 8.24073 10.9359 7.90508 11.0238C7.56944 11.1116 7.30731 11.3737 7.21946 11.7094C7.1316 12.045 7.23169 12.402 7.48124 12.643L9.82748 14.9835C10.1779 15.3257 10.6581 15.5016 11.1467 15.4668Z" fill="currentColor"/>
    </symbol>
    <symbol id="big-wins" viewBox="0 0 24 24" fill="none">
        <path d="M12 2a10 10 0 1 0 0 20 10 10 0 0 0 0-20m5.758 8.858-2.025 2a.74.74 0 0 0-.216.659l.466 2.816a.758.758 0 0 1-1.1.792l-2.5-1.308a.83.83 0 0 0-.7 0l-2.5 1.308a.758.758 0 0 1-1.1-.792l.467-2.816a.74.74 0 0 0-.217-.659l-2.033-2a.767.767 0 0 1 .425-1.3l2.817-.425a.78.78 0 0 0 .566-.408l1.217-2.558a.758.758 0 0 1 1.358 0l1.275 2.55a.76.76 0 0 0 .567.408l2.817.425a.767.767 0 0 1 .416 1.325z" fill="currentColor"></path>
    </symbol>
    <symbol id="chevron" viewBox="0 0 24 24" fill="none">
        <path d="M4.293 15.707a1 1 0 0 0 1.414 0L12 9.414l6.293 6.293a1 1 0 0 0 1.414-1.414l-7-7a1 1 0 0 0-1.414 0l-7 7a1 1 0 0 0 0 1.414" fill="currentColor"></path>
    </symbol>
    <symbol id="hamburger" viewBox="0 0 24 24" fill="none">
        <path fill-rule="evenodd" clip-rule="evenodd" d="M3 7a1 1 0 0 1 1-1h14a1 1 0 1 1 0 2H4a1 1 0 0 1-1-1m0 5a1 1 0 0 1 1-1h16a1 1 0 1 1 0 2H4a1 1 0 0 1-1-1m1 4a1 1 0 1 0 0 2h10a1 1 0 1 0 0-2z" fill="currentColor"></path>
    </symbol>
    <symbol id="play-outline" viewBox="0 0 24 24" fill="none">
        <path d="M7.608 4.615a.75.75 0 0 0-1.108.659v13.452a.75.75 0 0 0 1.108.659l12.362-6.726a.75.75 0 0 0 0-1.318zM5 5.274c0-1.707 1.826-2.792 3.325-1.977l12.362 6.727c1.566.852 1.566 3.1 0 3.952L8.325 20.702C6.826 21.518 5 20.432 5 18.726z" fill="currentColor"></path>
    </symbol>
    <symbol id="mail" viewBox="0 0 24 24" fill="none">
        <path d="M22 8.608v8.142a3.25 3.25 0 0 1-3.066 3.245L18.75 20H5.25a3.25 3.25 0 0 1-3.245-3.066L2 16.75V8.608l9.652 5.056a.75.75 0 0 0 .696 0zM5.25 4h13.5a3.25 3.25 0 0 1 3.234 2.924L12 12.154l-9.984-5.23a3.25 3.25 0 0 1 3.048-2.919zh13.5z" fill="currentColor"></path>
    </symbol>
    <symbol id="hamburger-r" viewBox="0 0 24 24" fill="none">
        <path fill-rule="evenodd" clip-rule="evenodd" d="M5 7a1 1 0 0 1 1-1h14a1 1 0 1 1 0 2H6a1 1 0 0 1-1-1m-2 5a1 1 0 0 1 1-1h16a1 1 0 1 1 0 2H4a1 1 0 0 1-1-1m7 4a1 1 0 1 0 0 2h10a1 1 0 1 0 0-2z" fill="currentColor"></path>
    </symbol>
    <symbol id="all-games" viewBox="0 0 24 24" fill="none">
        <path d="M6.5 22c2.485 0 4.5-2.04 4.5-4.557a4.57 4.57 0 0 0-1.035-2.907c.848-.885 1.774-2.32 2.496-3.976.729-1.673 1.285-3.656 1.326-5.659q.267.189.531.468c.468.496.886 1.167 1.243 1.921.602 1.273.98 2.683 1.13 3.644C14.592 11.32 13 13.181 13 15.418c0 2.517 2.015 4.557 4.5 4.557s4.5-2.04 4.5-4.557c0-2.274-1.645-4.16-3.795-4.502-.151-1.128-.586-2.79-1.291-4.282-.398-.84-.898-1.664-1.51-2.314-.18-.19-.374-.37-.58-.531l.913-.309a.76.76 0 0 0 .475-.96.75.75 0 0 0-.949-.48l-4.5 1.518a.76.76 0 0 0-.474.96.75.75 0 0 0 .948.481l1.052-.355c.005 1.815-.495 3.684-1.2 5.303-.71 1.627-1.585 2.912-2.262 3.595a4.44 4.44 0 0 0-2.327-.656c-2.485 0-4.5 2.04-4.5 4.557S4.015 22 6.5 22" fill="currentColor"></path>
    </symbol>
    <symbol id="live" viewBox="0 0 24 24" fill="none">
        <path d="M6.343 4.938a1 1 0 0 1 0 1.415 8.003 8.003 0 0 0 0 11.317 1 1 0 1 1-1.415 1.414c-3.906-3.906-3.906-10.24 0-14.146a1 1 0 0 1 1.415 0m12.731 0c3.906 3.907 3.906 10.24 0 14.146a1 1 0 0 1-1.414-1.414 8.003 8.003 0 0 0 0-11.317 1 1 0 0 1 1.414-1.415M9.31 7.812a1 1 0 0 1 0 1.414 3.92 3.92 0 0 0 0 5.544 1 1 0 1 1-1.414 1.414 5.92 5.92 0 0 1 0-8.372 1 1 0 0 1 1.414 0m6.959 0a5.92 5.92 0 0 1 0 8.372 1 1 0 0 1-1.415-1.414 3.92 3.92 0 0 0 0-5.544 1 1 0 0 1 1.415-1.414m-4.187 2.77a1.5 1.5 0 1 1 0 3 1.5 1.5 0 0 1 0-3" fill="currentColor"></path>
    </symbol>
    <symbol id="sport-soccer" viewBox="0 0 24 24" fill="none">
        <path d="M12 2C6.477 2 2 6.477 2 12s4.477 10 10 10 10-4.477 10-10S17.523 2 12 2M8.244 4.373l3.008 1.8v2.193l-2.791 2.028-2.044-.707-.587-3.534a8.5 8.5 0 0 1 2.414-1.78m-4.623 9.066 2.327-2.327 2.04.705L9.07 15.15l-.97 1.575-3.293-.194a8.45 8.45 0 0 1-1.186-3.092m6.909 6.934-1.184-2.809.963-1.567h3.372l.912 1.581-1.04 2.78a8.6 8.6 0 0 1-3.023.015m8.362-3.397-3.024-.19-.938-1.624 1.087-3.345 2.013-.696 2.312 2.52a8.5 8.5 0 0 1-1.45 3.335m-.72-10.82-.589 3.533-2.04.705-2.791-2.028V6.172l3.002-1.8a8.5 8.5 0 0 1 2.418 1.784" fill="currentColor"></path>
    </symbol>
    <symbol id="target-gamepad" viewBox="0 0 24 24" fill="none">
        <path d="M22.883 10.467c-.289-1.225-.856-2.29-1.943-3.006-1.544-1.016-3.168-1.109-4.84-.296-.062.03-.142.068-.202.055-.306-.067-.607-.15-.922-.228.01-.05.013-.089.024-.127q.126-.444.25-.888c.144-.517.523-.744 1.057-.634.806.167 1.6-.156 1.985-.854.15-.274.22-.594.31-.898a.447.447 0 0 0-.317-.568c-.276-.08-.545.054-.627.315-.043.137-.09.274-.117.414-.108.56-.625.786-1.127.66a1.787 1.787 0 0 0-2.13 1.23l-.313 1.093c-.32-.08-.62-.15-.916-.232a.27.27 0 0 1-.136-.113 4.6 4.6 0 0 0-4.834-2.005c-1.54.33-2.695 1.213-3.498 2.512-.595.963-1.124 1.967-1.661 2.964a112 112 0 0 0-1.719 3.296c-.436.878-.16 1.97.608 2.595 1.006.82 2.552.843 3.64.064 1.09-.782 2.186-1.557 3.278-2.337a.28.28 0 0 1 .26-.049c.505.134 1.013.258 1.52.387q2.6.659 5.199 1.324c.069.018.154.075.181.136.537 1.178 1.059 2.363 1.601 3.54.503 1.089 1.372 1.7 2.597 1.777 1.21.077 2.276-.679 2.52-1.793.084-.383.09-.784.11-1.178.086-1.66.17-3.32.244-4.98.032-.726.088-1.455-.082-2.176m-12.327-.762c-.17.194-.394.244-.642.185-.325-.077-.648-.163-.993-.25-.093.325-.177.631-.268.935-.086.29-.333.454-.64.436a.6.6 0 0 1-.572-.503.8.8 0 0 1 .03-.302c.073-.283.157-.563.236-.845.003-.009-.001-.02-.004-.05q-.466-.12-.945-.24c-.224-.056-.387-.18-.463-.396a.5.5 0 0 1 .128-.553.68.68 0 0 1 .677-.186c.26.06.516.131.775.197.055.014.11.026.18.042.088-.31.17-.616.26-.92a.63.63 0 0 1 .61-.447c.275-.002.526.164.59.42a.75.75 0 0 1-.005.345c-.07.294-.16.584-.24.875-.003.01 0 .02.002.048l.931.237c.205.052.363.16.447.353a.55.55 0 0 1-.094.619m8.03-.642c.46.003.817.345.814.78-.003.437-.36.774-.822.774-.458 0-.824-.342-.825-.771-.002-.434.372-.785.834-.783m-2.474 1.606c.007-.42.385-.761.833-.75.463.013.826.36.807.792-.02.437-.318.784-.817.772-.471-.009-.83-.364-.823-.814m1.778 2.405c-.45 0-.824-.35-.83-.774-.004-.44.368-.792.842-.794.406-.003.796.396.797.816.002.41-.366.752-.81.752m1.656-.897c-.453-.002-.821-.354-.82-.781.003-.41.375-.806.772-.774.46.036.837.325.856.82.015.39-.378.738-.808.735" fill="currentColor"></path>
    </symbol>
    <symbol id="support" viewBox="0 0 24 24" fill="none">
        <path d="M12 18.75a.75.75 0 1 0 0 1.5.75.75 0 0 0 0-1.5m5.5-8.5v-1a5.5 5.5 0 1 0-11 0v1H9a1 1 0 0 1 1 1v4a1 1 0 0 1-1 1H6.5v.25a2.25 2.25 0 0 0 2.096 2.245l.154.005h1.128a2.251 2.251 0 1 1 0 1.5H8.75a3.75 3.75 0 0 1-3.745-3.55L5 16.5V9.25a7 7 0 0 1 14 0v5a2 2 0 0 1-1.85 1.994l-.15.006h-2a1 1 0 0 1-.993-.883L14 15.25v-4a1 1 0 0 1 .883-.993L15 10.25zm-9 1.5h-2v3h2zm9 0h-2v3H17a.5.5 0 0 0 .492-.41l.008-.09z" fill="currentColor"></path>
    </symbol>
    <symbol id="chat" viewBox="0 0 24 24" fill="none">
        <path d="M5 9.25a7 7 0 0 1 14 0v5a2 2 0 0 1-2 2h-2a1 1 0 0 1-1-1v-4a1 1 0 0 1 1-1h2.5v-1a5.5 5.5 0 1 0-11 0v1H9a1 1 0 0 1 1 1v4a1 1 0 0 1-1 1H7q-.26 0-.5-.063v.313a2.25 2.25 0 0 0 2.096 2.245l.154.005h1.128a2.25 2.25 0 1 1 0 1.5H8.75a3.75 3.75 0 0 1-3.745-3.55L5 16.5z" fill="currentColor"></path>
    </symbol>
    <symbol id="person" viewBox="0 0 24 24" fill="none">
        <path d="M17.754 14a2.25 2.25 0 0 1 2.25 2.249v.918a2.75 2.75 0 0 1-.513 1.599C17.945 20.929 15.42 22 12 22c-3.422 0-5.945-1.072-7.487-3.237a2.75 2.75 0 0 1-.51-1.595v-.92a2.25 2.25 0 0 1 2.249-2.25zM12 2.004a5 5 0 1 1 0 10 5 5 0 0 1 0-10" fill="currentColor"></path>
    </symbol>
    <symbol id="gift" viewBox="0 0 24 24" fill="none">
        <path d="M11.25 13v9h-4A3.25 3.25 0 0 1 4 18.75V13zM20 13v5.75A3.25 3.25 0 0 1 16.75 22h-4v-9zM14.5 2a3.25 3.25 0 0 1 2.738 5.002L19.75 7c.69 0 1.25.466 1.25 1.042v2.916c0 .576-.56 1.042-1.25 1.042l-7-.001V7h-1.5v4.999l-7 .001C3.56 12 3 11.534 3 10.958V8.042C3 7.466 3.56 7 4.25 7l2.512.002A3.25 3.25 0 0 1 12 3.174 3.24 3.24 0 0 1 14.5 2m-5 1.5a1.75 1.75 0 0 0-.144 3.494L9.5 7h1.75V5.25l-.006-.144A1.75 1.75 0 0 0 9.5 3.5m5 0a1.75 1.75 0 0 0-1.75 1.75V7h1.75a1.75 1.75 0 1 0 0-3.5" fill="currentColor"></path>
    </symbol>
    <symbol id="activities" viewBox="0 0 24 24" fill="none">
        <path d="M21.78 6.78a.75.75 0 0 0-.53-1.28H18.5V2.75a.75.75 0 0 0-1.28-.53l-2.5 2.5a.75.75 0 0 0-.22.53v2.836l-1.982 1.982A2.003 2.003 0 0 0 10 12a2 2 0 1 0 3.932-.518L15.914 9.5h2.836a.75.75 0 0 0 .53-.22zM12 2a10 10 0 0 1 3.424.601l-1.412 1.412q-.094.094-.171.2a8 8 0 1 0 5.947 5.947q.105-.078.2-.172l1.41-1.412A10 10 0 0 1 22 12c0 5.523-4.477 10-10 10S2 17.523 2 12 6.477 2 12 2m0 4c.518 0 1.02.066 1.5.19v1.482l-.414.414-.049.05A4.005 4.005 0 0 0 8 12a4 4 0 1 0 7.864-1.037l.05-.049.414-.414h1.483A6 6 0 1 1 12 6" fill="currentColor"></path>
    </symbol>
    <symbol id="play" viewBox="0 0 24 24" fill="none">
        <path d="M5 5.274c0-1.707 1.826-2.792 3.325-1.977l12.362 6.727c1.566.852 1.566 3.1 0 3.952L8.325 20.702C6.826 21.518 5 20.432 5 18.726z" fill="currentColor"></path>
    </symbol>
    <symbol id="favorite-outline" viewBox="0 0 24 24" fill="none">
        <path d="m12.82 5.58-.82.822-.824-.824a5.375 5.375 0 1 0-7.601 7.602l7.895 7.895a.75.75 0 0 0 1.06 0l7.902-7.897a5.376 5.376 0 0 0-.001-7.599 5.38 5.38 0 0 0-7.611 0m6.548 6.54L12 19.485 4.635 12.12a3.875 3.875 0 1 1 5.48-5.48l1.358 1.357a.75.75 0 0 0 1.073-.012L13.88 6.64a3.88 3.88 0 0 1 5.487 5.48" fill="currentColor"></path>
    </symbol>
    <symbol id="cross" viewBox="0 0 24 24" fill="none">
        <path d="m4.21 4.387.083-.094a1 1 0 0 1 1.32-.083l.094.083L12 10.585l6.293-6.292a1 1 0 1 1 1.414 1.414L13.415 12l6.292 6.293a1 1 0 0 1 .083 1.32l-.083.094a1 1 0 0 1-1.32.083l-.094-.083L12 13.415l-6.293 6.292a1 1 0 0 1-1.414-1.414L10.585 12 4.293 5.707a1 1 0 0 1-.083-1.32l.083-.094z" fill="currentColor"></path>
    </symbol>
    <symbol id="telegram" viewBox="0 0 48 48">
        <path d="M41.4193 7.30899C41.4193 7.30899 45.3046 5.79399 44.9808 9.47328C44.8729 10.9883 43.9016 16.2908 43.1461 22.0262L40.5559 39.0159C40.5559 39.0159 40.3401 41.5048 38.3974 41.9377C36.4547 42.3705 33.5408 40.4227 33.0011 39.9898C32.5694 39.6652 24.9068 34.7955 22.2086 32.4148C21.4531 31.7655 20.5897 30.4669 22.3165 28.9519L33.6487 18.1305C34.9438 16.8319 36.2389 13.8019 30.8426 17.4812L15.7331 27.7616C15.7331 27.7616 14.0063 28.8437 10.7686 27.8698L3.75342 25.7055C3.75342 25.7055 1.16321 24.0823 5.58815 22.459C16.3807 17.3729 29.6555 12.1786 41.4193 7.30899Z" fill="currentColor"/>
    </symbol>
    <symbol id="instagram" viewBox="0 0 16 16">
        <path d="M8 0C5.829 0 5.556.01 4.703.048 3.85.088 3.269.222 2.76.42a3.92 3.92 0 0 0-1.417.923A3.93 3.93 0 0 0 .42 2.76C.222 3.268.087 3.85.048 4.7.01 5.555 0 5.827 0 8.001c0 2.172.01 2.444.048 3.297.04.852.174 1.433.372 1.942.205.526.478.972.923 1.417.444.445.89.719 1.416.923.51.198 1.09.333 1.942.372C5.555 15.99 5.827 16 8 16s2.444-.01 3.298-.048c.851-.04 1.434-.174 1.943-.372a3.92 3.92 0 0 0 1.416-.923c.445-.445.718-.891.923-1.417.197-.509.332-1.09.372-1.942C15.99 10.445 16 10.173 16 8s-.01-2.445-.048-3.299c-.04-.851-.175-1.433-.372-1.941A3.93 3.93 0 0 0 14.653 1.343 3.92 3.92 0 0 0 13.24.42c-.51-.198-1.092-.333-1.943-.372C10.443.01 10.172 0 7.998 0zm-.717 1.442h.718c2.136 0 2.389.007 3.232.046.78.035 1.204.166 1.486.275.373.145.64.319.92.599s.453.546.598.92c.11.281.24.705.275 1.485.039.843.047 1.096.047 3.231s-.008 2.389-.047 3.232c-.035.78-.166 1.203-.275 1.485a2.5 2.5 0 0 1-.599.919c-.28.28-.546.453-.92.598-.28.11-.704.24-1.485.276-.843.038-1.096.047-3.232.047s-2.39-.009-3.233-.047c-.78-.036-1.203-.166-1.485-.276a2.5 2.5 0 0 1-.92-.598 2.5 2.5 0 0 1-.6-.92c-.109-.281-.24-.705-.275-1.485-.038-.843-.046-1.096-.046-3.233 0-2.136.008-2.388.046-3.231.036-.78.166-1.204.276-1.486.145-.373.319-.64.599-.92s.546-.453.92-.598c.282-.11.705-.24 1.485-.276.738-.034 1.024-.044 2.515-.045zm4.988 1.328a.96.96 0 1 0 0 1.92.96.96 0 0 0 0-1.92m-4.27 1.122a4.11 4.11 0 0 0-4.109 4.11A4.11 4.11 0 0 0 8 12.11a4.11 4.11 0 0 0 4.108-4.11A4.11 4.11 0 0 0 8 3.891zm0 1.441a2.667 2.667 0 1 1 0 5.334 2.667 2.667 0 0 1 0-5.334"/>
    </symbol>
    <symbol id="whatsup" viewBox="0 0 16 16">
        <path d="M13.601 2.326A7.85 7.85 0 0 0 7.994 0C3.627 0 .068 3.558.064 7.926c0 1.399.366 2.76 1.057 3.965L0 16l4.204-1.102a7.9 7.9 0 0 0 3.79.965h.004c4.368 0 7.926-3.558 7.93-7.93A7.9 7.9 0 0 0 13.6 2.326zM7.994 14.521a6.6 6.6 0 0 1-3.356-.92l-.24-.144-2.494.654.666-2.433-.156-.251a6.56 6.56 0 0 1-1.007-3.505c0-3.626 2.957-6.584 6.591-6.584a6.56 6.56 0 0 1 4.66 1.931 6.56 6.56 0 0 1 1.928 4.66c-.004 3.639-2.961 6.592-6.592 6.592m3.615-4.934c-.197-.099-1.17-.578-1.353-.646-.182-.065-.315-.099-.445.099-.133.197-.513.646-.627.775-.114.133-.232.148-.43.05-.197-.1-.836-.308-1.592-.985-.59-.525-.985-1.175-1.103-1.372-.114-.198-.011-.304.088-.403.087-.088.197-.232.296-.346.1-.114.133-.198.198-.33.065-.134.034-.248-.015-.347-.05-.099-.445-1.076-.612-1.47-.16-.389-.323-.335-.445-.34-.114-.007-.247-.007-.38-.007a.73.73 0 0 0-.529.247c-.182.198-.691.677-.691 1.654s.71 1.916.81 2.049c.098.133 1.394 2.132 3.383 2.992.47.205.84.326 1.129.418.475.152.904.129 1.246.08.38-.058 1.171-.48 1.338-.943.164-.464.164-.86.114-.943-.049-.084-.182-.133-.38-.232"/>
    </symbol>
</svg>
