<svg xmlns="http://www.w3.org/2000/svg" width="24" height="25" fill="none">
  <g fill="#D0D2D7">
    <path d="M21.373 9.325c.345 1.02.52 2.087.52 3.175 0 5.455-4.438 9.893-9.893 9.893-5.455 0-9.894-4.438-9.894-9.893 0-5.455 4.439-9.894 9.894-9.894 1.088 0 2.155.176 3.175.521V.926A11.987 11.987 0 0 0 12 .5C5.383.5 0 5.883 0 12.5s5.383 12 12 12 12-5.383 12-12c0-1.08-.143-2.145-.425-3.175h-2.202Z"/>
    <path fill-rule="evenodd" d="M16.35 12.136c.638-.348 1.021-.975 1.021-1.683 0-1.334-1.125-2.181-2.912-2.181-1.764 0-2.901.823-2.901 2.123 0 .708.44 1.358 1.126 1.74-.94.372-1.544 1.16-1.544 2.09 0 1.438 1.3 2.355 3.33 2.355 2.031 0 3.33-.929 3.33-2.39 0-.906-.556-1.683-1.45-2.054Zm-1.88 2.947c-.893 0-1.38-.383-1.38-1.068 0-.673.487-1.056 1.38-1.056.894 0 1.393.383 1.393 1.056 0 .697-.5 1.068-1.393 1.068Zm0-3.609c-.754 0-1.171-.325-1.171-.905 0-.603.417-.94 1.171-.94.755 0 1.172.337 1.172.94 0 .58-.417.905-1.171.905Z" clip-rule="evenodd"/>
    <path d="M7.545 10.012v6.474H9.61V8.352H6.048v1.66h1.497ZM20.642 1.411v2.287h2.286v1.644h-2.286v2.286h-1.644V5.342h-2.273V3.698h2.273V1.41h1.644Z"/>
  </g>
</svg>
