<svg xmlns="http://www.w3.org/2000/svg" width="51" height="23" fill="none">
  <g fill="#D0D2D7">
    <path fill-rule="evenodd" d="M5.47 10.971c0-.972.801-1.76 1.79-1.76h.137c0-.891.11-2.045.678-3.005.627-1.056 1.727-1.74 3.335-1.74 1.602 0 2.72.676 3.379 1.712.608.957.757 2.111.757 3.033h.137c.989 0 1.79.788 1.79 1.76v5.334c0 .972-.801 1.76-1.79 1.76H7.26c-.988 0-1.79-.788-1.79-1.76v-5.334Zm7.928-1.76H9.544c0-.785.11-1.476.387-1.941.218-.37.588-.692 1.479-.692.897 0 1.31.33 1.558.72.298.468.43 1.158.43 1.913Zm.966 2.825-.527-.507a.365.365 0 0 0-.263-.104.366.366 0 0 0-.264.104l-2.54 2.448-1.138-1.099a.366.366 0 0 0-.263-.104.366.366 0 0 0-.264.104l-.526.507a.34.34 0 0 0-.108.253c0 .1.036.184.108.254l1.928 1.856c.072.07.16.104.263.104a.365.365 0 0 0 .264-.104l3.33-3.205a.34.34 0 0 0 .108-.254.34.34 0 0 0-.108-.253Z" clip-rule="evenodd"/>
    <path fill-rule="evenodd" d="M0 4.02C0 2.076 1.602.5 3.579.5h16.105c1.977 0 3.58 1.576 3.58 3.52v14.96c0 1.944-1.603 3.52-3.58 3.52H3.58C1.602 22.5 0 20.924 0 18.98V4.02Zm3.579-1.232h16.105c.692 0 1.253.552 1.253 1.232v14.96c0 .68-.561 1.232-1.253 1.232H3.58a1.242 1.242 0 0 1-1.253-1.232V4.02c0-.68.561-1.232 1.253-1.232Z" clip-rule="evenodd"/>
    <path d="M29.552 12.6c.559.232 1.23.348 2.01.348.725 0 1.366-.108 1.926-.323.568-.223 1.008-.537 1.32-.942.321-.413.481-.897.481-1.45 0-.505-.107-.923-.32-1.253-.214-.34-.552-.612-1.012-.819-.453-.215-1.061-.392-1.827-.533-.468-.099-.83-.194-1.085-.285-.247-.1-.428-.207-.543-.322a.615.615 0 0 1-.16-.434c0-.257.098-.45.295-.583.198-.132.482-.198.852-.198.32 0 .588.066.802.198.222.132.358.293.407.483.05.075.103.129.16.162.066.033.149.05.247.05h1.63a.253.253 0 0 0 .26-.26c-.018-.365-.166-.733-.446-1.105-.271-.38-.67-.694-1.197-.942-.526-.248-1.147-.372-1.863-.372-.691 0-1.296.112-1.814.335-.518.223-.917.533-1.197.93s-.42.847-.42 1.351c0 .744.243 1.319.728 1.724.494.397 1.234.698 2.222.905.534.116.937.219 1.209.31.271.09.469.194.592.31a.567.567 0 0 1 .198.446c0 .257-.124.459-.37.608-.247.149-.605.223-1.074.223-.395 0-.712-.07-.95-.21a1.286 1.286 0 0 1-.518-.534.679.679 0 0 0-.198-.161.394.394 0 0 0-.234-.062h-1.555a.271.271 0 0 0-.198.087.239.239 0 0 0-.074.173c.017.447.165.86.445 1.24.287.372.711.674 1.27.905ZM37.734 12.6c.56.232 1.23.348 2.011.348.724 0 1.366-.108 1.925-.323.568-.223 1.008-.537 1.32-.942.321-.413.482-.897.482-1.45 0-.505-.107-.923-.321-1.253-.214-.34-.551-.612-1.012-.819-.452-.215-1.061-.392-1.826-.533-.47-.099-.831-.194-1.086-.285-.247-.1-.428-.207-.543-.322a.615.615 0 0 1-.16-.434c0-.257.098-.45.296-.583.197-.132.48-.198.851-.198.32 0 .588.066.802.198.222.132.358.293.407.483.05.075.103.129.16.162.067.033.149.05.248.05h1.628a.253.253 0 0 0 .26-.26c-.017-.365-.165-.733-.445-1.105-.271-.38-.67-.694-1.197-.942-.526-.248-1.147-.372-1.863-.372-.69 0-1.296.112-1.814.335-.518.223-.917.533-1.197.93s-.42.847-.42 1.351c0 .744.243 1.319.729 1.724.493.397 1.234.698 2.22.905.536.116.939.219 1.21.31.272.09.47.194.593.31a.567.567 0 0 1 .197.446c0 .257-.123.459-.37.608-.247.149-.605.223-1.074.223-.395 0-.711-.07-.95-.21a1.286 1.286 0 0 1-.518-.534.677.677 0 0 0-.198-.161.394.394 0 0 0-.234-.062H36.29a.271.271 0 0 0-.197.087.238.238 0 0 0-.074.173c.016.447.164.86.444 1.24.288.372.711.674 1.27.905ZM45.015 12.823a.328.328 0 0 1-.222-.086.33.33 0 0 1-.086-.223v-8.06c0-.09.029-.165.086-.223a.328.328 0 0 1 .222-.087h1.63a.3.3 0 0 1 .221.087.303.303 0 0 1 .087.223v6.497h3.738c.091 0 .165.033.223.1a.303.303 0 0 1 .086.223v1.24a.33.33 0 0 1-.086.223.3.3 0 0 1-.223.086h-5.676ZM29.403 19.86c-.342 0-.638-.054-.889-.161a1.387 1.387 0 0 1-.567-.422 1.013 1.013 0 0 1-.21-.57.12.12 0 0 1 .037-.087.135.135 0 0 1 .099-.043h.314c.078 0 .132.041.16.124a.737.737 0 0 0 .315.446c.177.124.424.186.74.186.342 0 .6-.06.772-.18a.598.598 0 0 0 .26-.514.462.462 0 0 0-.13-.341 1.04 1.04 0 0 0-.37-.23 9.483 9.483 0 0 0-.741-.248 3.789 3.789 0 0 1-.765-.291 1.11 1.11 0 0 1-.426-.384 1.078 1.078 0 0 1-.142-.577c0-.223.06-.424.18-.601.123-.178.297-.317.524-.416.226-.103.495-.155.808-.155.32 0 .596.058.827.174.23.111.405.254.524.428a1 1 0 0 1 .191.52.12.12 0 0 1-.037.087c-.02.025-.051.037-.092.037h-.327c-.087 0-.14-.039-.16-.117a.606.606 0 0 0-.29-.428 1.098 1.098 0 0 0-.636-.174c-.28 0-.5.054-.66.161a.537.537 0 0 0-.24.478c0 .14.036.256.11.347.078.09.195.172.352.242a6.5 6.5 0 0 0 .685.23c.35.094.625.193.826.297.202.099.352.225.45.378.1.149.149.339.149.57 0 .385-.148.686-.444.905-.297.22-.696.329-1.197.329ZM31.994 19.798a.155.155 0 0 1-.104-.037.157.157 0 0 1-.037-.106v-4.048c0-.045.012-.08.037-.105a.143.143 0 0 1 .104-.044h2.549c.04 0 .074.015.098.044.03.024.044.06.044.105v.236a.157.157 0 0 1-.038.105c-.024.025-.06.037-.104.037h-2.098v1.358h1.962c.041 0 .074.014.099.043.028.025.043.06.043.106v.23a.144.144 0 0 1-.043.104.133.133 0 0 1-.1.038h-1.961v1.407h2.147c.045 0 .08.012.105.037.024.025.037.06.037.106v.241a.144.144 0 0 1-.043.106.133.133 0 0 1-.099.037h-2.598ZM35.848 19.414c.288.297.708.446 1.259.446.366 0 .676-.064.931-.192a1.45 1.45 0 0 0 .58-.515c.132-.21.204-.438.216-.682a.088.088 0 0 0-.037-.087.125.125 0 0 0-.092-.037h-.34a.149.149 0 0 0-.098.031c-.025.02-.043.058-.056.112-.066.31-.191.529-.376.657-.181.124-.424.186-.728.186-.708 0-1.074-.395-1.098-1.184-.005-.12-.007-.296-.007-.527 0-.232.002-.403.007-.515.024-.79.39-1.184 1.098-1.184.304 0 .547.064.728.192.18.124.306.341.376.651.02.095.072.143.154.143h.34a.13.13 0 0 0 .086-.031.112.112 0 0 0 .043-.087v-.012a1.393 1.393 0 0 0-.216-.676 1.408 1.408 0 0 0-.58-.508c-.255-.133-.565-.199-.931-.199-.547 0-.965.151-1.253.453-.288.297-.442.707-.462 1.227-.005.116-.007.302-.007.558 0 .252.003.434.007.546.02.525.172.936.456 1.234ZM41.29 19.86c-.53 0-.942-.143-1.234-.428-.288-.29-.432-.725-.432-1.308v-2.517c0-.045.013-.08.037-.105a.143.143 0 0 1 .105-.044h.315a.13.13 0 0 1 .105.044c.029.024.043.06.043.105v2.53c0 .396.092.694.278.892.185.199.446.298.783.298s.599-.1.784-.298c.185-.198.277-.496.277-.892v-2.53c0-.045.013-.08.037-.105a.143.143 0 0 1 .105-.044h.321c.041 0 .074.015.099.044a.144.144 0 0 1 .043.105v2.517c0 .583-.146 1.019-.438 1.308-.288.285-.697.428-1.228.428Z"/>
    <path fill-rule="evenodd" d="M44.024 19.76a.155.155 0 0 0 .105.038h.315a.155.155 0 0 0 .105-.037.144.144 0 0 0 .043-.106v-1.6h1.08l.894 1.576a.44.44 0 0 0 .093.124.234.234 0 0 0 .148.043h.296a.118.118 0 0 0 .087-.037.112.112 0 0 0 .043-.087.154.154 0 0 0-.019-.068l-.95-1.65c.28-.078.496-.218.648-.42.156-.203.234-.462.234-.776 0-.421-.133-.744-.4-.967-.268-.223-.638-.335-1.111-.335h-1.506a.143.143 0 0 0-.105.044c-.024.024-.037.06-.037.105v4.048c0 .042.013.077.037.106Zm2.505-3.006c0 .517-.306.775-.919.775h-1.018v-1.55h1.018c.613 0 .92.258.92.775Z" clip-rule="evenodd"/>
    <path d="M48.172 19.798a.155.155 0 0 1-.105-.037.157.157 0 0 1-.037-.106v-4.048c0-.045.013-.08.037-.105a.143.143 0 0 1 .105-.044h2.548c.041 0 .074.015.1.044.028.024.042.06.042.105v.236a.157.157 0 0 1-.037.105c-.024.025-.06.037-.105.037h-2.097v1.358h1.962c.04 0 .074.014.098.043.03.025.044.06.044.106v.23a.144.144 0 0 1-.044.104.133.133 0 0 1-.098.038h-1.962v1.407h2.147c.045 0 .08.012.105.037.024.025.037.06.037.106v.241a.144.144 0 0 1-.044.106.133.133 0 0 1-.098.037h-2.598Z"/>
  </g>
</svg>
