<svg width="16" height="16" viewBox="0 0 16 16" fill="none" xmlns="http://www.w3.org/2000/svg">
<path d="M15.1428 5.29405L10.8267 4.66619L8.90012 0.756026C8.80859 0.598524 8.6773 0.467812 8.51939 0.376956C8.36149 0.286099 8.1825 0.238281 8.00033 0.238281C7.81817 0.238281 7.63917 0.286099 7.48127 0.376956C7.32336 0.467812 7.19207 0.598524 7.10049 0.756026L5.17393 4.66719L0.85785 5.29405C0.673023 5.32057 0.499315 5.3983 0.356398 5.51846C0.213481 5.63861 0.107067 5.79639 0.0492097 5.97392C-0.0086475 6.15147 -0.015636 6.34162 0.0290359 6.5229C0.0737075 6.70419 0.168254 6.86938 0.301967 6.99967L3.4243 10.044L2.68746 14.3431C2.65595 14.527 2.67652 14.716 2.74683 14.8888C2.81713 15.0615 2.93438 15.2112 3.0853 15.3209C3.23623 15.4305 3.41482 15.4957 3.60087 15.5092C3.78693 15.5226 3.97303 15.4837 4.13815 15.3969L8.00033 13.3664L11.8605 15.3949C12.0256 15.4817 12.2117 15.5206 12.3978 15.5072C12.5838 15.4937 12.7624 15.4285 12.9133 15.3189C13.0643 15.2092 13.1815 15.0595 13.2518 14.8868C13.3221 14.714 13.3427 14.525 13.3112 14.3411L12.5743 10.042L15.6987 6.99967C15.832 6.86944 15.9264 6.70454 15.971 6.52355C16.0156 6.34256 16.0087 6.15264 15.9511 5.97538C15.8935 5.79808 15.7875 5.64043 15.645 5.52022C15.5025 5.4 15.3292 5.32201 15.1448 5.29506L15.1428 5.29405Z" fill="#FFBF19"/>
</svg>